<svg id="pdf" xmlns="http://www.w3.org/2000/svg" width="24.817" height="36.349" viewBox="0 0 24.817 36.349">
  <defs>
    <style>
      .cls-1 {
        fill: #fff;
      }

      .cls-2 {
        fill: #d9d7ca;
      }

      .cls-3 {
        fill: #7e3817;
      }
    </style>
  </defs>
  <path id="Path_3416" data-name="Path 3416" class="cls-1" d="M24.094,0H7.344C6.878,0,6.5.425,6.5,1.25V35.7a.888.888,0,0,0,.844.649H30.473a.888.888,0,0,0,.844-.649V8.424c0-.452-.054-.6-.148-.7L24.453.167A.483.483,0,0,0,24.094,0Z" transform="translate(-6.5 0)"/>
  <path id="Path_3417" data-name="Path 3417" class="cls-2" d="M37.5.151V7.842h6.839Z" transform="translate(-19.609 -0.053)"/>
  <path id="Path_3418" data-name="Path 3418" class="cls-3" d="M18.628,24.054h0a.862.862,0,0,1-.558-.212,1.636,1.636,0,0,1-.644-1.455c.105-1.057,1.267-2.163,3.454-3.29a47.3,47.3,0,0,0,2.186-6.978c-.576-1.41-1.136-3.239-.728-4.312a1.2,1.2,0,0,1,.654-.789,2.549,2.549,0,0,1,.586-.112c.291,0,.547.421.728.681.17.244.556.761-.215,4.415a21.059,21.059,0,0,0,2.936,4.908,10.031,10.031,0,0,1,1.938-.232c.9,0,1.451.237,1.675.725a1.442,1.442,0,0,1-.225,1.4,1.5,1.5,0,0,1-1.281.773A3.718,3.718,0,0,1,26.7,18.1a25.511,25.511,0,0,0-5.095,1.832,19.156,19.156,0,0,1-1.375,2.759C19.643,23.619,19.133,24.054,18.628,24.054Zm1.536-3.327c-1.233.78-1.736,1.42-1.772,1.781-.006.06-.021.217.249.449C18.726,22.927,19.229,22.669,20.164,20.727Zm7.87-2.883c.47.407.585.613.893.613a.814.814,0,0,0,.7-.286,1.075,1.075,0,0,0,.133-.269c-.071-.042-.165-.128-.678-.128A7.516,7.516,0,0,0,28.035,17.844Zm-4.311-4.272a50.231,50.231,0,0,1-1.543,4.91,26.549,26.549,0,0,1,3.749-1.311A22.491,22.491,0,0,1,23.723,13.572Zm-.35-5.493a1.7,1.7,0,0,0,.055,2.087C23.976,8.794,23.4,8.07,23.373,8.079Z" transform="translate(-11.117 -2.424)"/>
  <path id="Path_3419" data-name="Path 3419" class="cls-3" d="M30.473,50.034H7.344a.9.9,0,0,1-.844-.95V39H31.317V49.085A.9.9,0,0,1,30.473,50.034Z" transform="translate(-6.5 -13.686)"/>
  <g id="Group_2009" data-name="Group 2009" transform="translate(5.335 27.861)">
    <path id="Path_3420" data-name="Path 3420" class="cls-1" d="M16.691,49.464h-.947v-6.54h1.673a2.111,2.111,0,0,1,.734.133,1.94,1.94,0,0,1,.651.4,2.055,2.055,0,0,1,.466.643,1.965,1.965,0,0,1,.178.848,2.574,2.574,0,0,1-.15.9,1.9,1.9,0,0,1-.418.679,1.852,1.852,0,0,1-.647.426,2.24,2.24,0,0,1-.836.151h-.7v2.361Zm0-5.733v2.591h.868a.929.929,0,0,0,.343-.067.856.856,0,0,0,.312-.217,1.092,1.092,0,0,0,.229-.421,2.225,2.225,0,0,0,.087-.67,2.028,2.028,0,0,0-.039-.368,1.13,1.13,0,0,0-.162-.4.993.993,0,0,0-.343-.319,1.156,1.156,0,0,0-.584-.129h-.71Z" transform="translate(-15.744 -42.924)"/>
    <path id="Path_3421" data-name="Path 3421" class="cls-1" d="M28.779,46.012a5.37,5.37,0,0,1-.154,1.38,3.644,3.644,0,0,1-.391.959,2.154,2.154,0,0,1-.533.608,2.578,2.578,0,0,1-.572.333,2.151,2.151,0,0,1-.5.142,3,3,0,0,1-.339.03h-2.2v-6.54h1.752a3,3,0,0,1,1.29.262,2.685,2.685,0,0,1,.923.7,2.933,2.933,0,0,1,.548.989A3.643,3.643,0,0,1,28.779,46.012ZM25.97,48.683a1.5,1.5,0,0,0,1.389-.692,3.861,3.861,0,0,0,.426-2.006,3.8,3.8,0,0,0-.087-.807,1.811,1.811,0,0,0-.335-.723,1.783,1.783,0,0,0-.675-.524,2.617,2.617,0,0,0-1.1-.2h-.552v4.952h.939Z" transform="translate(-19.271 -42.924)"/>
    <path id="Path_3422" data-name="Path 3422" class="cls-1" d="M35.561,43.731V45.79h2.43v.728h-2.43v2.946H34.6v-6.54h3.637v.807Z" transform="translate(-23.717 -42.924)"/>
  </g>
</svg>
